<?xml version="1.0" encoding="UTF-8" standalone="no"?>
<!-- Created with Inkscape (http://www.inkscape.org/) by Toomai Glittershine for SmashWiki -->
<svg id="svg2" xmlns:rdf="http://www.w3.org/1999/02/22-rdf-syntax-ns#" xmlns="http://www.w3.org/2000/svg" version="1.1" xmlns:cc="http://creativecommons.org/ns#" xmlns:dc="http://purl.org/dc/elements/1.1/" xmlns:xlink="http://www.w3.org/1999/xlink"
		height="256" width="256"
		viewBox="0 0 256 256">
	<defs id="defs4">
		<linearGradient id="linearGradient4240">
			<stop id="stop4242" offset="0" style="stop-color:#bfbfbf;stop-opacity:1;" />
			<stop id="stop4244" offset="1" style="stop-color:#5f5f5f;stop-opacity:1;" />
		</linearGradient>
		<linearGradient id="linearGradient4239">
			<stop id="stop4241" offset="0" style="stop-color:#000000;stop-opacity:1;" />
			<stop id="stop4243" offset="1" style="stop-color:#7f7f7f;stop-opacity:1;" />
		</linearGradient>
		<linearGradient id="linearGradient4223">
			<stop id="stop4225" offset="0" style="stop-color:#ffffff;stop-opacity:1;" />
			<stop id="stop4227" offset="1" style="stop-color:#7f7f7f;stop-opacity:1;" />
		</linearGradient>
		<linearGradient id="linearGradient4206">
		  <stop id="stop4208" offset="0" style="stop-color:#ff9f00;stop-opacity:1;" />
		  <stop id="stop4214" offset="0.5" style="stop-color:#ff9f00;stop-opacity:1;" />
		  <stop id="stop4210" offset="1" style="stop-color:#ff9f00;stop-opacity:0;" />
		</linearGradient>
		<radialGradient id="radialGradient4246" xlink:href="#linearGradient4240" cx="128" cy="138" fx="128" fy="138" r="40" gradientUnits="userSpaceOnUse" />
		<linearGradient id="linearGradient4289" xlink:href="#linearGradient4239" x1="150" y1="224" x2="160" y2="214" gradientUnits="userSpaceOnUse" />
		<linearGradient id="linearGradient4297" xlink:href="#linearGradient4239" x1="165" y1="155" x2="155" y2="165" gradientUnits="userSpaceOnUse" />
		<linearGradient id="linearGradient4305" xlink:href="#linearGradient4239" x1="214" y1="160" x2="224" y2="150" gradientUnits="userSpaceOnUse" />
		<linearGradient id="linearGradient4313" xlink:href="#linearGradient4223" x1="214" y1="96" x2="224" y2="106" gradientUnits="userSpaceOnUse" />
		<linearGradient id="linearGradient4321" xlink:href="#linearGradient4223" x1="165" y1="101" x2="155" y2="91" gradientUnits="userSpaceOnUse" />
		<linearGradient id="linearGradient4329" xlink:href="#linearGradient4223" x1="150" y1="32" x2="160" y2="42" gradientUnits="userSpaceOnUse" />
		<linearGradient id="linearGradient4281" xlink:href="#linearGradient4239" x1="106" y1="224" x2="96" y2="214" gradientUnits="userSpaceOnUse" />
		<linearGradient id="linearGradient4273" xlink:href="#linearGradient4239" x1="91" y1="155" x2="101" y2="165" gradientUnits="userSpaceOnUse" />
		<linearGradient id="linearGradient4265" xlink:href="#linearGradient4239" x1="42" y1="160" x2="32" y2="150" gradientUnits="userSpaceOnUse" />
		<linearGradient id="linearGradient4257" xlink:href="#linearGradient4223" x1="42" y1="96" x2="32" y2="106" gradientUnits="userSpaceOnUse" />
		<linearGradient id="linearGradient4249" xlink:href="#linearGradient4223" x1="91" y1="101" x2="101" y2="91" gradientUnits="userSpaceOnUse" />
		<linearGradient id="linearGradient4241" xlink:href="#linearGradient4223" x1="106" y1="32" x2="96" y2="42" gradientUnits="userSpaceOnUse" />
		<radialGradient id="radialGradient4212" xlink:href="#linearGradient4206" cx="128" cy="186.353127" fx="128" fy="186.353127" r="50" gradientUnits="userSpaceOnUse" />
	</defs>
	<metadata id="metadata7">
		<rdf:RDF>
			<cc:Work rdf:about="">
				<dc:format>image/svg+xml</dc:format>
				<dc:type rdf:resource="http://purl.org/dc/dcmitype/StillImage"/>
				<dc:title/>
			</cc:Work>
		</rdf:RDF>
	</metadata>
	<g id="g4598">
		<path id="rect3356" style="opacity:1;fill:#bfbfbf;fill-opacity:1;stroke:none;"
			d="m 106,32 c -5.54,0 -10,4.46 -10,10 l 0,44 c 0,4.714045 -5.285955,10 -10,10 l -44,0 c -5.54,0 -10,4.46 -10,10 l 0,44 c 0,5.54 4.46,10 10,10 l 44,0 c 4.714045,0 10,5.28595 10,10 l 0,44 c 0,5.54 4.46,10 10,10 l 44,0 c 5.54,0 10,-4.46 10,-10 l 0,-44 c 0,-4.71405 5.28595,-10 10,-10 l 44,0 c 5.54,0 10,-4.46 10,-10 l 0,-44 c 0,-5.54 -4.46,-10 -10,-10 l -44,0 c -4.71405,0 -10,-5.285955 -10,-10 l 0,-44 c 0,-5.54 -4.46,-10 -10,-10 z"
		/>
		<g id="g4331">
			<path id="path4230" style="opacity:0.25;fill:url(#linearGradient4289);fill-opacity:1;stroke:none;"
				d="m 128,224 22,0 c 5.54,0 10,-4.46 10,-10 l 0,-22 -5,-5 0,22 c 0,5.54 -4.46,10 -10,10 l -17,0 z"
			/>
			<path id="path4228" style="opacity:0.25;fill:url(#linearGradient4297);fill-opacity:1;stroke:none;"
				d="m 160,192 0,-22 c 0,-4.71405 5.28595,-10 10,-10 l 22,0 -5,-5 -22,0 c -4.71405,0 -10,5.28595 -10,10 l 0,22 z"
			/>
			<path id="path4226" style="opacity:0.25;fill:url(#linearGradient4305);fill-opacity:1;stroke:none;"
				d="m 192,160 22,0 c 5.54,0 10,-4.46 10,-10 l 0,-22 -5,0 0,17 c 0,5.54 -4.46,10 -10,10 l -22,0 z"
			/>
			<path id="path4224" style="opacity:0.25;fill:url(#linearGradient4313);fill-opacity:1;stroke:none;"
				d="m 224,128 0,-22 c 0,-5.54 -4.46,-10 -10,-10 l -22,0 -5,5 22,0 c 5.54,0 10,4.46 10,10 l 0,17 z"
			/>
			<path id="path4222" style="opacity:0.25;fill:url(#linearGradient4321);fill-opacity:1;stroke:none;"
				d="m 192,96 -22,0 c -4.71405,0 -10,-5.285955 -10,-10 l 0,-22 -5,5 0,22 c 0,4.714045 5.28595,10 10,10 l 22,0 z"
			/>
			<path id="path4220" style="opacity:0.25;fill:url(#linearGradient4329);fill-opacity:1;stroke:none;"
				d="m 160,64 0,-22 c 0,-5.54 -4.46,-10 -10,-10 l -22,0 0,5 17,0 c 5.54,0 10,4.46 10,10 l 0,22 z"
			/>
			<path id="path4194" style="opacity:0.25;fill:url(#linearGradient4281);fill-opacity:1;stroke:none;"
				d="m 128,219 -17,0 c -5.54,0 -10,-4.46 -10,-10 l 0,-22 -5,5 0,22 c 0,5.54 4.46,10 10,10 l 22,0 z"
			/>
			<path id="path4192" style="opacity:0.25;fill:url(#linearGradient4273);fill-opacity:1;stroke:none;"
				d="m 101,187 0,-22 c 0,-4.71405 -5.285955,-10 -10,-10 l -22,0 -5,5 22,0 c 4.714045,0 10,5.28595 10,10 l 0,22 z"
			/>
			<path id="path4190" style="opacity:0.25;fill:url(#linearGradient4265);fill-opacity:1;stroke:none;"
				d="m 69,155 -22,0 c -5.54,0 -10,-4.46 -10,-10 l 0,-17 -5,0 0,22 c 0,5.54 4.46,10 10,10 l 22,0 z"
			/>
			<path id="path4188" style="opacity:0.25;fill:url(#linearGradient4257);fill-opacity:1;stroke:none;"
				d="m 37,128 0,-17 c 0,-5.54 4.46,-10 10,-10 l 22,0 -5,-5 -22,0 c -5.54,0 -10,4.46 -10,10 l 0,22 z"
			/>
			<path id="path4186" style="opacity:0.25;fill:url(#linearGradient4249);fill-opacity:1;stroke:none;"
				d="m 69,101 22,0 c 4.714045,0 10,-5.285955 10,-10 l 0,-22 -5,-5 0,22 c 0,4.714045 -5.285955,10 -10,10 l -22,0 z"
			/>
			<path id="path4180" style="opacity:0.25;fill:url(#linearGradient4241);fill-opacity:1;stroke:none;"
				d="m 101,69 0,-22 c 0,-5.54 4.46,-10 10,-10 l 17,0 0,-5 -22,0 c -5.54,0 -10,4.46 -10,10 l 0,22 z"
			/>
		</g>
		<circle id="path3370" cx="128" cy="128" r="20" style="opacity:1;fill:url(#radialGradient4246);fill-opacity:1;stroke:none;" />
		<circle id="path3404" cx="128" cy="186.353127" r="50" style="opacity:1;fill:url(#radialGradient4212);fill-opacity:1;stroke:none;" />
		<path id="path3380" style="opacity:1;fill:#5f5f5f;fill-opacity:1;stroke:none;"
			d="m 130,47.736328 c -0.54034,-1.218941 -3.45966,-1.218941 -4,0 l -13.225,29.833984 c -0.54043,1.219134 0.66645,3.464844 2,3.464844 l 26.45,0 c 1.33355,0 2.54043,-2.24571 2,-3.464844 z"
		/>
		<path id="path3387" style="opacity:1;fill:#5f5f5f;fill-opacity:1;stroke:none;"
			d="m 208.26367,130 c 1.21894,-0.54034 1.21894,-3.45966 0,-4 l -29.83398,-13.225 c -1.21914,-0.54043 -3.46485,0.66645 -3.46485,2 l 0,26.45 c 0,1.33355 2.24571,2.54043 3.46485,2 z"
		/>
		<path id="path3391" style="opacity:1;fill:#ffcf7f;fill-opacity:1;stroke:none;"
			d="m 126,208.26367 c 0.54034,1.21894 3.45966,1.21894 4,0 l 13.225,-29.83398 c 0.54043,-1.21914 -0.66645,-3.46485 -2,-3.46485 l -26.45,0 c -1.33355,0 -2.54043,2.24571 -2,3.46485 z"
		/>
		<path id="path3395" style="opacity:1;fill:#5f5f5f;fill-opacity:1;stroke:none;"
			d="m 47.73633,126 c -1.21894,0.54034 -1.21894,3.45966 0,4 l 29.83398,13.225 c 1.219136,0.54043 3.46485,-0.66645 3.46485,-2 l 0,-26.45 c 0,-1.33355 -2.245714,-2.54043 -3.46485,-2 z"
		/>
		<path id="path4219" style="opacity:1;fill:#8f8f8f;fill-opacity:1;stroke:none;"
			d="M 128 48.822266 C 127.13509 48.822266 126.27017 49.126858 126 49.736328 L 112.87891 79.335938 C 113.24118 80.237056 113.98169 81.035156 114.77539 81.035156 L 141.22461 81.035156 C 142.01831 81.035156 142.75882 80.237056 143.12109 79.335938 L 130 49.736328 C 129.72983 49.126858 128.86491 48.822266 128 48.822266 z "
		/>
		<path id="path4223" style="opacity:1;fill:#8f8f8f;fill-opacity:1;stroke:none;"
			d="M 177.93164 114.65039 C 176.68507 114.53758 174.96484 115.60853 174.96484 116.77539 L 174.96484 141.22461 C 174.96484 142.55816 177.21055 143.76504 178.42969 143.22461 L 208.26367 130 C 208.62656 129.83914 208.86881 129.45702 209.01562 129 C 208.86881 128.54298 208.62656 128.16086 208.26367 128 L 178.42969 114.77539 C 178.2773 114.70784 178.10972 114.66651 177.93164 114.65039 z "
		/>
		<path id="path4225" style="opacity:1;fill:#ffffff;fill-opacity:1;stroke:none;"
			d="M 114.77539 176.96484 C 113.98169 176.96484 113.24118 177.76294 112.87891 178.66406 L 126 208.26367 C 126.54034 209.48261 129.45966 209.48261 130 208.26367 L 143.12109 178.66406 C 142.75882 177.76294 142.01831 176.96484 141.22461 176.96484 L 114.77539 176.96484 z "
		/>
		<path id="path4221" style="opacity:1;fill:#8f8f8f;fill-opacity:1;stroke:none;"
			d="M 78.068359 114.65039 C 77.890278 114.66651 77.722704 114.70784 77.570312 114.77539 L 47.736328 128 C 47.373438 128.16086 47.131193 128.54298 46.984375 129 C 47.131193 129.45702 47.373438 129.83914 47.736328 130 L 77.570312 143.22461 C 78.789449 143.76504 81.035156 142.55816 81.035156 141.22461 L 81.035156 116.77539 C 81.035156 115.60853 79.314929 114.53758 78.068359 114.65039 z "
		/>
	</g>
</svg>